<?xml version="1.0" standalone="no"?><!DOCTYPE svg PUBLIC "-//W3C//DTD SVG 1.1//EN" "http://www.w3.org/Graphics/SVG/1.1/DTD/svg11.dtd"><svg t="1601004365270" class="icon" viewBox="0 0 1024 1024" version="1.1" xmlns="http://www.w3.org/2000/svg" p-id="7715" xmlns:xlink="http://www.w3.org/1999/xlink" width="200" height="200"><defs><style type="text/css"></style></defs><path d="M230.34 568.348a56.329 56.329 0 0 1-48.792-28.172 56.362 56.362 0 0 1 0-56.352 56.329 56.329 0 0 1 48.793-28.172h563.318a56.329 56.329 0 0 1 48.793 28.172 56.362 56.362 0 0 1 0 56.352 56.329 56.329 0 0 1-48.793 28.172H230.341zM512 357.043c-46.667 0-84.498-37.841-84.498-84.521S465.333 188 512 188s84.498 37.842 84.498 84.522c0 46.68-37.831 84.521-84.498 84.521zM512 836c-46.667 0-84.498-37.842-84.498-84.522 0-46.68 37.831-84.521 84.498-84.521s84.498 37.841 84.498 84.521S558.667 836 512 836z" fill="#333333" p-id="7716"></path></svg>