<?xml version="1.0" standalone="no"?><!DOCTYPE svg PUBLIC "-//W3C//DTD SVG 1.1//EN" "http://www.w3.org/Graphics/SVG/1.1/DTD/svg11.dtd"><svg t="1602233412097" class="icon" viewBox="0 0 1024 1024" version="1.1" xmlns="http://www.w3.org/2000/svg" p-id="1512" width="300" height="300" xmlns:xlink="http://www.w3.org/1999/xlink"><defs><style type="text/css"></style></defs><path d="M980.4 849.5H326.2c-13.6 0-25.3-7.8-31.7-20.4L17.2 537.5c-15.6-16.4-15.6-46.3 0-62.7L299.3 178c7.7-8.1 18.1-11.9 28.5-10.8h652.5c21 0 36.8 18.2 36.8 42.3v597.8c0 24-15.8 42.2-36.7 42.2z m-640.8-60h617.5V227.1H335.4l-265.2 279 269.4 283.4z" p-id="1513"></path><path d="M395.929 710.279l446.534-446.534 42.426 42.426-446.534 446.534z" p-id="1514"></path><path d="M395.999 306.162l42.426-42.426L884.958 710.27l-42.426 42.426z" p-id="1515"></path></svg>