<?xml version="1.0" standalone="no"?><!DOCTYPE svg PUBLIC "-//W3C//DTD SVG 1.1//EN" "http://www.w3.org/Graphics/SVG/1.1/DTD/svg11.dtd"><svg t="1601004290104" class="icon" viewBox="0 0 1024 1024" version="1.1" xmlns="http://www.w3.org/2000/svg" p-id="4428" xmlns:xlink="http://www.w3.org/1999/xlink" width="200" height="200"><defs><style type="text/css"></style></defs><path d="M305.52383 887.325414l-78.41355 69.088695-23.620396-24.583707c-11.945062-13.833152-19.266228-27.627772-20.499267-41.460923-0.385325-4.585362 0.577987-10.750555 0.192662-15.297385l27.396577-300.938487 65.351047-59.879438L333.382797 574.133606 305.52383 887.325414zM344.133352 451.330666l-68.202448 62.962034-54.639024-62.962034 22.695617-267.10699c3.005532-18.457047 3.583518-29.16907 4.585362-35.334263 1.849558-13.79462 8.592738-24.583707 21.462578-35.29573l41.306794-36.837029 59.609711 67.547397L344.133352 451.330666zM627.578104 901.158566l66.314358 73.674057-34.139757 30.7489c-14.141412 13.756087-30.633303 18.418514-59.802373 18.418514L329.760746 1024.000039c-29.16907 0-46.58574-6.165193-58.415204-18.418514l-27.280979-30.7489 82.613587-73.674057L627.578104 901.158566zM393.686092 122.841472 329.568083 56.835374l29.554394-30.7489C377.463927 7.667959 395.22739 0 418.231266 0l280.940142 0c21.501111 0 42.385702 10.750555 56.026192 26.086473l24.044253 29.207602-80.070445 67.547397L393.686092 122.841472zM680.329037 574.133606l68.279513-61.382204 54.523426 61.382204-22.811214 265.604224c-1.310104 19.959813-3.313791 32.251666-2.928467 36.875561-1.849558 13.756087-8.746868 23.003877-23.003877 35.257198l-44.504988 35.29573-56.026192-61.382204L680.329037 574.133606zM719.478013 144.304051 799.394329 75.215356l18.765306 21.501111c13.64049 15.335918 20.961656 29.16907 22.310292 44.504988 0.539454 6.165193 1.078909 12.291854 0.077065 18.418514l-25.123162 291.690698-69.859344 61.459269-52.982128-61.459269L719.478013 144.304051z" p-id="4429"></path></svg>